<?xml version="1.0" encoding="UTF-8" standalone="no"?>
<!-- Created with Inkscape (http://www.inkscape.org/) -->

<svg
   width="3.62743mm"
   height="4.29812mm"
   viewBox="0 0 3.62743 4.29812"
   version="1.1"
   id="svg1"
   inkscape:version="1.4 (e7c3feb100, 2024-10-09)"
   sodipodi:docname="shield0.svg"
   xmlns:inkscape="http://www.inkscape.org/namespaces/inkscape"
   xmlns:sodipodi="http://sodipodi.sourceforge.net/DTD/sodipodi-0.dtd"
   xmlns="http://www.w3.org/2000/svg"
   xmlns:svg="http://www.w3.org/2000/svg">
  <sodipodi:namedview
     id="namedview1"
     pagecolor="#ffffff"
     bordercolor="#000000"
     borderopacity="0.25"
     inkscape:showpageshadow="2"
     inkscape:pageopacity="0.0"
     inkscape:pagecheckerboard="0"
     inkscape:deskcolor="#d1d1d1"
     inkscape:document-units="mm"
     inkscape:zoom="64"
     inkscape:cx="9.4921875"
     inkscape:cy="6.546875"
     inkscape:window-width="2560"
     inkscape:window-height="1371"
     inkscape:window-x="0"
     inkscape:window-y="0"
     inkscape:window-maximized="1"
     inkscape:current-layer="layer1" />
  <defs
     id="defs1" />
  <g
     inkscape:label="Layer 1"
     inkscape:groupmode="layer"
     id="layer1"
     transform="translate(-103.1867,-146.31458)">
    <path
       id="path5-1"
       style="fill:#363636;stroke-width:0.264583"
       d="m 105.00338,146.31458 -0.004,0.002 -0.002,-10e-4 c -5.3e-4,8.6e-4 -0.001,0.002 -0.002,0.003 l -1.80868,0.86869 c 0,0 0.0567,1.89921 0.31988,2.40812 0.23806,0.46026 0.85822,0.82607 1.48053,1.01131 0.004,0.004 0.007,0.006 0.01,0.006 0.002,-4.6e-4 0.003,-10e-4 0.005,-0.002 3.6e-4,1.1e-4 6.7e-4,4.1e-4 0.001,5.2e-4 0.002,5.2e-4 0.004,-0.001 0.007,-0.003 0.6233,-0.18496 1.2457,-0.55083 1.48414,-1.01183 0.26323,-0.50891 0.31988,-2.40864 0.31988,-2.40864 l -1.80764,-0.86764 c -0.001,-0.002 -0.002,-0.003 -0.003,-0.005 z" />
    <path
       id="path5-3-2"
       style="fill:#8a8a8a;fill-opacity:1;stroke-width:0.197873"
       d="m 104.98768,146.81602 -0.003,0.002 -10e-4,-7.6e-4 c -3.9e-4,6.4e-4 -7.4e-4,0.002 -0.001,0.003 l -1.34176,0.65492 c 0,0 0.042,1.43188 0.2373,1.81556 0.17661,0.347 0.63667,0.62279 1.09833,0.76244 0.003,0.004 0.005,0.006 0.007,0.006 0.001,-3.5e-4 0.002,-7.5e-4 0.004,-0.002 2.7e-4,8e-5 5e-4,3e-4 7.4e-4,3.9e-4 10e-4,4e-4 0.003,-7.6e-4 0.005,-0.003 0.4624,-0.13946 0.92412,-0.41528 1.10101,-0.76285 0.19528,-0.38368 0.23731,-1.81594 0.23731,-1.81594 l -1.3411,-0.65457 c -7.5e-4,-0.002 -0.002,-0.003 -0.002,-0.005 z" />
    <path
       id="text14"
       style="font-size:2.89514px;text-align:start;writing-mode:lr-tb;direction:ltr;text-anchor:start;fill:#0046a3;fill-opacity:1;stroke-width:4.55927;stroke-dasharray:none"
       sodipodi:type="inkscape:offset"
       inkscape:radius="0.098816447"
       inkscape:original="M 97.929688 158.13281 C 97.754049 158.13281 97.613968 158.17484 97.507812 158.25977 C 97.401657 158.34469 97.325619 158.46673 97.279297 158.625 C 97.232975 158.78327 97.208984 158.97533 97.208984 159.19922 C 97.208984 159.42118 97.234974 159.61126 97.285156 159.76953 C 97.337269 159.9278 97.415329 160.04789 97.521484 160.13281 C 97.62764 160.21774 97.763699 160.26172 97.929688 160.26172 C 98.062864 160.26172 98.174911 160.23771 98.265625 160.18945 C 98.358269 160.1412 98.432309 160.07118 98.488281 159.98047 C 98.546184 159.88782 98.58819 159.77578 98.613281 159.64453 C 98.640303 159.51328 98.654297 159.36521 98.654297 159.19922 C 98.654297 158.97533 98.628284 158.78327 98.576172 158.625 C 98.524059 158.4648 98.444046 158.34276 98.337891 158.25977 C 98.231735 158.17484 98.095676 158.13281 97.929688 158.13281 z M 97.929688 158.48633 C 98.003031 158.48633 98.061031 158.51236 98.101562 158.56641 C 98.144025 158.61852 98.174035 158.69853 98.191406 158.80469 C 98.210707 158.90891 98.21875 159.04095 98.21875 159.19922 C 98.21875 159.35749 98.210707 159.48955 98.191406 159.5957 C 98.174035 159.69993 98.144025 159.77797 98.101562 159.83008 C 98.061031 159.88219 98.003031 159.9082 97.929688 159.9082 C 97.856344 159.9082 97.798321 159.88219 97.755859 159.83008 C 97.715327 159.77604 97.687293 159.69602 97.669922 159.5918 C 97.652551 159.48564 97.642578 159.35556 97.642578 159.19922 C 97.642578 159.04095 97.652551 158.90891 97.669922 158.80469 C 97.687293 158.69853 97.715327 158.61852 97.755859 158.56641 C 97.798321 158.51236 97.856344 158.48633 97.929688 158.48633 z "
       d="m 97.929687,158.0332 c -0.191403,0 -0.357524,0.047 -0.484375,0.14844 -0.124243,0.0994 -0.211054,0.24291 -0.261718,0.41602 -0.04979,0.17012 -0.07422,0.37061 -0.07422,0.60156 0,0.22967 0.02793,0.42898 0.08203,0.59961 a 0.09882633,0.09882633 0 0 0 0,0.002 c 0.05664,0.17201 0.144389,0.31161 0.267578,0.41016 0.125324,0.10026 0.28726,0.15039 0.470703,0.15039 0.144344,0 0.27269,-0.0268 0.38086,-0.084 0.108251,-0.0564 0.19723,-0.13962 0.261719,-0.24414 0.06519,-0.10431 0.11166,-0.2289 0.138671,-0.36914 v -0.002 c 0.02839,-0.13858 0.04297,-0.29206 0.04297,-0.46289 0,-0.23155 -0.0275,-0.43392 -0.08398,-0.60547 -0.05675,-0.17446 -0.147278,-0.31501 -0.271485,-0.41211 -0.125701,-0.1 -0.286735,-0.14844 -0.46875,-0.14844 z m 0,0.55274 c 0.04996,0 0.07123,0.009 0.09375,0.0391 a 0.09882633,0.09882633 0 0 0 0.002,0.004 c 0.02558,0.0314 0.05264,0.0953 0.06836,0.1914 a 0.09882633,0.09882633 0 0 0 0,0.002 c 0.01748,0.0943 0.02539,0.22203 0.02539,0.37695 0,0.15492 -0.0078,0.28219 -0.02539,0.3789 a 0.09882633,0.09882633 0 0 0 0,0.002 c -0.01565,0.0939 -0.04201,0.15517 -0.06836,0.1875 a 0.09882633,0.09882633 0 0 0 -0.002,0.002 c -0.02227,0.0286 -0.04377,0.0391 -0.09375,0.0391 -0.04998,0 -0.07287,-0.0106 -0.09766,-0.041 -0.02504,-0.0347 -0.0489,-0.0981 -0.06445,-0.19141 -0.01627,-0.0994 -0.02539,-0.22481 -0.02539,-0.37695 0,-0.15412 0.0092,-0.28199 0.02539,-0.37891 0.01591,-0.0973 0.04241,-0.16251 0.06641,-0.19336 0.02497,-0.0318 0.04574,-0.041 0.0957,-0.041 z"
       transform="scale(1.0731666,0.93182177)" />
  </g>
</svg>
