<?xml version="1.0" encoding="UTF-8" standalone="no"?>
<!-- Created with Inkscape (http://www.inkscape.org/) -->

<svg
   width="3.62743mm"
   height="4.29812mm"
   viewBox="0 0 3.62743 4.29812"
   version="1.1"
   id="svg1"
   sodipodi:docname="shield2.svg"
   inkscape:version="1.4 (e7c3feb100, 2024-10-09)"
   xmlns:inkscape="http://www.inkscape.org/namespaces/inkscape"
   xmlns:sodipodi="http://sodipodi.sourceforge.net/DTD/sodipodi-0.dtd"
   xmlns="http://www.w3.org/2000/svg"
   xmlns:svg="http://www.w3.org/2000/svg">
  <sodipodi:namedview
     id="namedview1"
     pagecolor="#ffffff"
     bordercolor="#000000"
     borderopacity="0.25"
     inkscape:showpageshadow="2"
     inkscape:pageopacity="0.0"
     inkscape:pagecheckerboard="0"
     inkscape:deskcolor="#d1d1d1"
     inkscape:document-units="mm"
     inkscape:zoom="64"
     inkscape:cx="9.4921875"
     inkscape:cy="6.546875"
     inkscape:window-width="2560"
     inkscape:window-height="1371"
     inkscape:window-x="0"
     inkscape:window-y="0"
     inkscape:window-maximized="1"
     inkscape:current-layer="layer1" />
  <defs
     id="defs1" />
  <g
     inkscape:label="Layer 1"
     inkscape:groupmode="layer"
     id="layer1"
     transform="translate(-103.1867,-146.31458)">
    <path
       id="path5-1"
       style="fill:#363636;stroke-width:0.264583"
       d="m 105.00338,146.31458 -0.004,0.002 -0.002,-10e-4 c -5.3e-4,8.6e-4 -0.001,0.002 -0.002,0.003 l -1.80868,0.86869 c 0,0 0.0567,1.89921 0.31988,2.40812 0.23806,0.46026 0.85822,0.82607 1.48053,1.01131 0.004,0.004 0.007,0.006 0.01,0.006 0.002,-4.6e-4 0.003,-10e-4 0.005,-0.002 3.6e-4,1.1e-4 6.7e-4,4.1e-4 0.001,5.2e-4 0.002,5.2e-4 0.004,-0.001 0.007,-0.003 0.6233,-0.18496 1.2457,-0.55083 1.48414,-1.01183 0.26323,-0.50891 0.31988,-2.40864 0.31988,-2.40864 l -1.80764,-0.86764 c -0.001,-0.002 -0.002,-0.003 -0.003,-0.005 z" />
    <path
       id="path5-3-2"
       style="fill:#8a8a8a;fill-opacity:1;stroke-width:0.197873"
       d="m 104.98768,146.81602 -0.003,0.002 -10e-4,-7.6e-4 c -3.9e-4,6.4e-4 -7.4e-4,0.002 -0.001,0.003 l -1.34176,0.65492 c 0,0 0.042,1.43188 0.2373,1.81556 0.17661,0.347 0.63667,0.62279 1.09833,0.76244 0.003,0.004 0.005,0.006 0.007,0.006 0.001,-3.5e-4 0.002,-7.5e-4 0.004,-0.002 2.7e-4,8e-5 5e-4,3e-4 7.4e-4,3.9e-4 10e-4,4e-4 0.003,-7.6e-4 0.005,-0.003 0.4624,-0.13946 0.92412,-0.41528 1.10101,-0.76285 0.19528,-0.38368 0.23731,-1.81594 0.23731,-1.81594 l -1.3411,-0.65457 c -7.5e-4,-0.002 -0.002,-0.003 -0.002,-0.005 z" />
    <path
       id="text14"
       style="font-size:2.89514px;text-align:start;writing-mode:lr-tb;direction:ltr;text-anchor:start;fill:#0046a3;fill-opacity:1;stroke-width:4.55927;stroke-dasharray:none"
       sodipodi:type="inkscape:offset"
       inkscape:radius="0.085690849"
       inkscape:original="M 97.953125 158.13672 C 97.829599 158.13672 97.72355 158.15074 97.634766 158.17969 C 97.547911 158.20671 97.469897 158.24272 97.402344 158.28711 C 97.336721 158.3315 97.274677 158.37953 97.214844 158.43164 L 97.453125 158.71289 C 97.536119 158.64534 97.614179 158.59331 97.689453 158.55664 C 97.764727 158.51997 97.842741 158.5 97.921875 158.5 C 97.999079 158.5 98.059123 158.52001 98.103516 158.56055 C 98.149838 158.60108 98.173828 158.6631 98.173828 158.74609 C 98.173828 158.81365 98.157858 158.87767 98.128906 158.9375 C 98.099955 158.9954 98.053927 159.06142 97.990234 159.13477 C 97.926541 159.20618 97.842506 159.29621 97.738281 159.4043 L 97.220703 159.92773 L 97.220703 160.23242 L 98.666016 160.23242 L 98.666016 159.86523 L 97.765625 159.86523 L 97.765625 159.84375 L 98.03125 159.5957 C 98.152846 159.48376 98.256873 159.38171 98.341797 159.28906 C 98.428651 159.19642 98.492717 159.10239 98.537109 159.00781 C 98.583432 158.91324 98.607422 158.80919 98.607422 158.69531 C 98.607422 158.58916 98.581386 158.49315 98.527344 158.41016 C 98.475231 158.32523 98.399216 158.25919 98.300781 158.21094 C 98.204277 158.16076 98.088232 158.13672 97.953125 158.13672 z "
       d="m 97.953125,158.05078 c -0.13001,0 -0.245551,0.0142 -0.345703,0.0469 -0.09288,0.0291 -0.177347,0.0682 -0.251953,0.11718 a 0.08569942,0.08569942 0 0 0 -0.002,0.002 c -0.06862,0.0464 -0.133021,0.0961 -0.195313,0.15039 a 0.08569942,0.08569942 0 0 0 -0.0078,0.11914 l 0.238281,0.28125 a 0.08569942,0.08569942 0 0 0 0.11914,0.0117 c 0.0793,-0.0645 0.151198,-0.11358 0.21875,-0.14649 0.06533,-0.0318 0.130595,-0.0469 0.195313,-0.0469 0.0624,0 0.0967,0.013 0.123047,0.0371 a 0.08569942,0.08569942 0 0 0 0.002,0.002 c 0.02475,0.0217 0.04102,0.0546 0.04102,0.12109 0,0.0541 -0.01126,0.10492 -0.03516,0.1543 -0.02443,0.0485 -0.06699,0.10868 -0.126953,0.17773 -0.06258,0.0702 -0.146302,0.16004 -0.25,0.26758 l -0.515625,0.52149 a 0.08569942,0.08569942 0 0 0 -0.02539,0.0605 v 0.30469 a 0.08569942,0.08569942 0 0 0 0.08594,0.0859 h 1.445313 a 0.08569942,0.08569942 0 0 0 0.08594,-0.0859 v -0.36719 a 0.08569942,0.08569942 0 0 0 -0.08594,-0.0859 h -0.705079 l 0.128907,-0.1211 c 0.122771,-0.11302 0.227155,-0.2153 0.314453,-0.31054 0.09226,-0.0984 0.162354,-0.19923 0.210937,-0.30274 h -0.002 c 0.0521,-0.10637 0.08008,-0.22369 0.08008,-0.34961 0,-0.11954 -0.03075,-0.23264 -0.09375,-0.33008 v -0.002 c -0.06089,-0.0986 -0.150405,-0.17461 -0.259765,-0.22851 h -0.002 c -0.111156,-0.0574 -0.240194,-0.084 -0.384766,-0.084 z"
       transform="scale(1.0731666,0.93182177)" />
  </g>
</svg>
